<svg width="12" height="18" viewBox="0 0 12 18" fill="none" xmlns="http://www.w3.org/2000/svg">
<path d="M1.27994 8.05334L8.82661 0.520008C8.95056 0.395037 9.09803 0.295845 9.26051 0.228153C9.42299 0.160462 9.59726 0.12561 9.77328 0.12561C9.94929 0.12561 10.1236 0.160462 10.286 0.228153C10.4485 0.295845 10.596 0.395037 10.7199 0.520008C10.9683 0.769825 11.1077 1.10776 11.1077 1.46001C11.1077 1.81226 10.9683 2.15019 10.7199 2.40001L4.11994 9.06667L10.7199 15.6667C10.9683 15.9165 11.1077 16.2544 11.1077 16.6067C11.1077 16.9589 10.9683 17.2969 10.7199 17.5467C10.5965 17.6727 10.4492 17.7729 10.2867 17.8415C10.1242 17.9102 9.94969 17.9459 9.77328 17.9467C9.59687 17.9459 9.42236 17.9102 9.25986 17.8415C9.09736 17.7729 8.9501 17.6727 8.82661 17.5467L1.27994 10.0133C1.1446 9.88848 1.03659 9.73695 0.962715 9.56828C0.888838 9.39962 0.850699 9.21748 0.850699 9.03334C0.850699 8.8492 0.888838 8.66707 0.962715 8.4984C1.03659 8.32973 1.1446 8.1782 1.27994 8.05334V8.05334Z" fill="#676A71"/>
</svg>
