<svg width="22" height="28" viewBox="0 0 22 28" fill="none" xmlns="http://www.w3.org/2000/svg">
<path d="M21.6267 17.8133L20.8667 12.2666C20.2401 7.63993 16.6668 4.05327 12.3201 3.43994V2.01334C12.3201 1.28001 11.7201 0.680008 10.9868 0.680008C10.2534 0.680008 9.65342 1.28001 9.65342 2.01334V3.43994C5.30675 4.0666 1.76007 7.63993 1.12007 12.2666L0.360083 17.8133C0.160083 19.2533 0.586736 20.6933 1.5334 21.76C2.42674 22.7733 3.69342 23.3599 5.02675 23.3599H6.42675C6.72009 25.5866 8.61341 27.32 10.9201 27.32C13.2267 27.32 15.1201 25.5866 15.4134 23.3599H16.9201C18.2534 23.3599 19.5201 22.7733 20.4134 21.76C21.3601 20.68 21.7867 19.24 21.5867 17.8133H21.6267ZM10.9468 24.6667C10.1068 24.6667 9.4134 24.12 9.16007 23.3733H12.7334C12.4801 24.12 11.7868 24.6667 10.9468 24.6667ZM18.4401 20.0133C18.0534 20.4533 17.5201 20.7066 16.9468 20.7066H5.04008C4.46674 20.7066 3.94675 20.4667 3.54675 20.0133C3.12008 19.52 2.92007 18.84 3.0134 18.1733L3.77341 12.6266C4.28008 8.85329 7.38674 5.99999 11.0001 5.99999C14.6134 5.99999 17.7067 8.85329 18.2267 12.6266L18.9868 18.1733C19.0801 18.84 18.8801 19.52 18.4534 20.0133H18.4401Z" fill="#A7B4CC"/>
</svg>
