<svg width="22" height="21" viewBox="0 0 22 21" fill="none" xmlns="http://www.w3.org/2000/svg">
<path d="M14.7098 6.79008C14.6169 6.69635 14.5063 6.62196 14.3844 6.57119C14.2626 6.52042 14.1318 6.49428 13.9998 6.49428C13.8678 6.49428 13.7371 6.52042 13.6153 6.57119C13.4934 6.62196 13.3828 6.69635 13.2898 6.79008L10.9998 9.09008L8.70984 6.79008C8.52153 6.60178 8.26614 6.49599 7.99984 6.49599C7.73353 6.49599 7.47814 6.60178 7.28983 6.79008C7.10153 6.97838 6.99574 7.23378 6.99574 7.50008C6.99574 7.76638 7.10153 8.02178 7.28983 8.21008L9.58984 10.5001L7.28983 12.7901C7.19611 12.883 7.12171 12.9936 7.07094 13.1155C7.02017 13.2374 6.99404 13.3681 6.99404 13.5001C6.99404 13.6321 7.02017 13.7628 7.07094 13.8847C7.12171 14.0065 7.19611 14.1171 7.28983 14.2101C7.3828 14.3038 7.4934 14.3782 7.61526 14.429C7.73712 14.4797 7.86782 14.5059 7.99984 14.5059C8.13185 14.5059 8.26255 14.4797 8.38441 14.429C8.50627 14.3782 8.61687 14.3038 8.70984 14.2101L10.9998 11.9101L13.2898 14.2101C13.3828 14.3038 13.4934 14.3782 13.6153 14.429C13.7371 14.4797 13.8678 14.5059 13.9998 14.5059C14.1318 14.5059 14.2626 14.4797 14.3844 14.429C14.5063 14.3782 14.6169 14.3038 14.7098 14.2101C14.8036 14.1171 14.878 14.0065 14.9287 13.8847C14.9795 13.7628 15.0056 13.6321 15.0056 13.5001C15.0056 13.3681 14.9795 13.2374 14.9287 13.1155C14.878 12.9936 14.8036 12.883 14.7098 12.7901L12.4098 10.5001L14.7098 8.21008C14.8036 8.11712 14.878 8.00652 14.9287 7.88466C14.9795 7.7628 15.0056 7.63209 15.0056 7.50008C15.0056 7.36807 14.9795 7.23736 14.9287 7.1155C14.878 6.99364 14.8036 6.88304 14.7098 6.79008ZM18.0698 3.43008C17.1474 2.47498 16.0439 1.71316 14.8239 1.18907C13.6038 0.664975 12.2916 0.389113 10.9638 0.377575C9.63605 0.366037 8.31926 0.619054 7.09029 1.12186C5.86133 1.62467 4.74481 2.3672 3.80589 3.30613C2.86696 4.24506 2.12443 5.36158 1.62162 6.59054C1.11881 7.8195 0.865793 9.1363 0.877331 10.4641C0.888869 11.7919 1.16473 13.1041 1.68882 14.3241C2.21291 15.5442 2.97473 16.6476 3.92984 17.5701C4.8523 18.5252 5.95575 19.287 7.17579 19.8111C8.39583 20.3352 9.70803 20.611 11.0358 20.6226C12.3636 20.6341 13.6804 20.3811 14.9094 19.8783C16.1383 19.3755 17.2549 18.633 18.1938 17.694C19.1327 16.7551 19.8752 15.6386 20.3781 14.4096C20.8809 13.1807 21.1339 11.8639 21.1223 10.5361C21.1108 9.20827 20.8349 7.89607 20.3109 6.67603C19.7868 5.45599 19.0249 4.35255 18.0698 3.43008ZM16.6598 16.1601C15.3519 17.4695 13.6304 18.2849 11.7886 18.4674C9.94688 18.6499 8.09884 18.1881 6.55936 17.1609C5.01987 16.1336 3.88419 14.6043 3.34581 12.8336C2.80742 11.0628 2.89964 9.16022 3.60675 7.44986C4.31386 5.73951 5.59211 4.32723 7.22373 3.45364C8.85534 2.58006 10.7394 2.29921 12.5548 2.65895C14.3703 3.0187 16.0049 3.99677 17.1801 5.42654C18.3553 6.85631 18.9984 8.64932 18.9998 10.5001C19.0034 11.5514 18.7984 12.5929 18.3968 13.5645C17.9951 14.536 17.4047 15.4182 16.6598 16.1601Z" fill="#D4D7DB"/>
</svg>
