<svg width="20" height="17" viewBox="0 0 20 17" fill="none" xmlns="http://www.w3.org/2000/svg">
<path d="M19.0554 5.4825C17.0864 3.1225 13.9282 0.302498 10.0103 0.302498C9.2607 0.302498 8.49112 0.412498 7.73154 0.622498C7.20183 0.772498 6.89199 1.3225 7.04191 1.8525C7.19183 2.3825 7.74154 2.6925 8.27125 2.5425C8.85093 2.3825 9.4406 2.2925 10.0103 2.2925C13.3085 2.2925 16.127 5.0825 17.5162 6.7525C18.1459 7.5125 18.1559 8.58249 17.5462 9.34249C17.3063 9.6425 17.0365 9.9525 16.7366 10.2725C16.3568 10.6725 16.3768 11.3125 16.7766 11.6825C16.9665 11.8625 17.2164 11.9525 17.4662 11.9525C17.7361 11.9525 17.9959 11.8425 18.1958 11.6425C18.5357 11.2825 18.8355 10.9325 19.1053 10.6025C20.3147 9.1125 20.2947 6.9525 19.0654 5.4725L19.0554 5.4825Z" fill="#272A33"/>
<path d="M6.05245 2.6425C6.02247 2.5625 6.00248 2.4825 5.9525 2.4025C5.82257 2.2125 5.64267 2.1025 5.45278 2.0325L3.71373 0.2925C3.32395 -0.0975 2.68429 -0.0975 2.3045 0.2925C1.91471 0.6825 1.91471 1.3125 2.3045 1.7025L3.52383 2.9225C2.64431 3.6325 1.79478 4.4725 0.96523 5.4525C-0.284089 6.9325 -0.324073 9.0225 0.865279 10.5425C2.37446 12.4625 5.56272 15.6925 9.97032 15.6925C11.6394 15.6925 13.2785 15.2125 14.8676 14.3025L16.2669 15.7125C16.4668 15.9125 16.7166 16.0025 16.9765 16.0025C17.2364 16.0025 17.4862 15.9025 17.6861 15.7125C18.0759 15.3225 18.0759 14.6925 17.6861 14.3025L6.05245 2.6425ZM8.07136 7.5025L10.5 9.9325C10.3401 9.9725 10.1702 10.0025 10.0003 10.0025C8.9009 10.0025 8.00139 9.1025 8.00139 8.0025C8.00139 7.8325 8.03138 7.6625 8.07136 7.5025ZM9.96033 13.7025C6.40227 13.7025 3.71372 10.9525 2.42443 9.3125C1.82475 8.5525 1.84475 7.4925 2.4744 6.7525C3.26397 5.8125 4.08352 5.0125 4.92307 4.3625L6.56217 6.0025C6.20237 6.6125 5.99249 7.2925 5.99249 8.0125C5.99249 10.2225 7.78152 12.0125 9.99031 12.0125C10.6999 12.0125 11.3895 11.8025 11.9892 11.4525L13.3785 12.8525C12.2491 13.4225 11.0997 13.7125 9.95033 13.7125L9.96033 13.7025Z" fill="#272A33"/>
</svg>
