<svg width="19" height="19" viewBox="0 0 19 19" fill="none" xmlns="http://www.w3.org/2000/svg">
<path d="M17.8099 16.8501L14.9099 13.9501C15.9999 12.5501 16.5899 10.8401 16.5899 9.04012C16.5899 6.89012 15.7499 4.87012 14.2299 3.35012C11.0999 0.210117 5.98988 0.210117 2.85988 3.35012C-0.280117 6.49012 -0.280117 11.5901 2.85988 14.7201C4.37988 16.2401 6.39988 17.0801 8.54988 17.0801C10.3699 17.0801 12.0999 16.4701 13.4999 15.3701L16.3999 18.2701C16.5999 18.4701 16.8499 18.5601 17.1099 18.5601C17.3699 18.5601 17.6199 18.4601 17.8199 18.2701C18.2099 17.8801 18.2099 17.2501 17.8199 16.8601L17.8099 16.8501ZM4.26988 13.3101C1.90988 10.9501 1.90988 7.12012 4.26988 4.77012C5.44988 3.59012 6.99988 3.00011 8.53988 3.00011C10.0799 3.00011 11.6299 3.59012 12.8099 4.77012C13.9899 5.95012 14.5799 7.43012 14.5799 9.04012C14.5799 10.6501 13.9499 12.1701 12.8099 13.3101C11.6699 14.4501 10.1499 15.0801 8.53988 15.0801C6.92988 15.0801 5.40988 14.4501 4.26988 13.3101Z" fill="#D4D7DB"/>
</svg>
