<svg width="700" height="354" viewBox="0 0 700 354" fill="none" xmlns="http://www.w3.org/2000/svg">
<path opacity="0.27" d="M361.316 230.905C545.984 230.905 695.687 224.343 695.687 216.249C695.687 208.154 545.984 201.593 361.316 201.593C176.648 201.593 26.9453 208.154 26.9453 216.249C26.9453 224.343 176.648 230.905 361.316 230.905Z" fill="#BCBEC0"/>
<path d="M106.25 128.669L105.803 214.441C105.794 215.145 105.507 215.817 105.006 216.312C104.504 216.806 103.828 217.083 103.123 217.083L88.0706 217.007C87.3653 216.999 86.6916 216.713 86.1957 216.212C85.6999 215.711 85.4218 215.034 85.4219 214.33L85.8685 128.562C85.8768 127.857 86.1628 127.184 86.6645 126.689C87.1662 126.193 87.8432 125.916 88.5485 125.916L103.601 125.992C104.307 126 104.98 126.285 105.476 126.787C105.972 127.288 106.25 127.964 106.25 128.669Z" fill="#006F80"/>
<path d="M96.0454 122.922L95.5703 220.051L109.412 220.119L109.887 122.99L96.0454 122.922Z" fill="#13A3B9"/>
<path d="M88.9342 128.473L88.4876 214.464C88.4852 214.985 88.3802 215.5 88.1784 215.98C87.9766 216.46 87.6821 216.896 87.3116 217.262C86.9412 217.629 86.5021 217.919 86.0194 218.115C85.5368 218.312 85.0201 218.412 84.4988 218.409C83.9782 218.407 83.4631 218.302 82.983 218.1C82.5029 217.899 82.0672 217.605 81.7009 217.235C81.3346 216.866 81.0449 216.427 80.8482 215.946C80.6515 215.464 80.5518 214.948 80.5548 214.428L81.0014 128.433C81.0043 127.912 81.1098 127.398 81.3119 126.918C81.5139 126.438 81.8085 126.003 82.1789 125.637C82.5493 125.271 82.9882 124.982 83.4706 124.785C83.9529 124.589 84.4693 124.489 84.9902 124.492C85.5108 124.494 86.0259 124.599 86.506 124.801C86.9861 125.002 87.4217 125.296 87.788 125.666C88.1543 126.035 88.4441 126.474 88.6408 126.955C88.8375 127.437 88.9372 127.953 88.9342 128.473Z" fill="#A0D8E0"/>
<path d="M85.4867 197.924L85.4453 206.386L105.818 206.485L105.859 198.024L85.4867 197.924Z" fill="#434D6A"/>
<path d="M95.6664 197.976L95.625 206.438L105.809 206.488L105.85 198.026L95.6664 197.976Z" fill="#272A33"/>
<path d="M85.4945 197.926L85.4531 206.388L88.5138 206.403L88.5552 197.941L85.4945 197.926Z" fill="#52607C"/>
<path d="M85.7992 136.465L85.7578 144.926L106.13 145.026L106.171 136.564L85.7992 136.465Z" fill="#434D6A"/>
<path d="M95.9867 136.512L95.9453 144.974L106.129 145.024L106.171 136.562L95.9867 136.512Z" fill="#272A33"/>
<path d="M85.7992 136.467L85.7578 144.928L88.8185 144.943L88.8599 136.482L85.7992 136.467Z" fill="#52607C"/>
<path d="M126.675 128.772L126.229 214.54C126.22 215.244 125.934 215.917 125.433 216.413C124.931 216.908 124.254 217.186 123.549 217.186L108.496 217.11C108.146 217.109 107.8 217.039 107.477 216.903C107.155 216.768 106.862 216.57 106.616 216.321C106.37 216.072 106.176 215.777 106.045 215.453C105.914 215.129 105.848 214.782 105.852 214.432L106.298 128.66C106.308 127.956 106.594 127.285 107.096 126.79C107.597 126.296 108.274 126.018 108.978 126.018L124.031 126.094C124.736 126.104 125.408 126.39 125.903 126.891C126.398 127.392 126.675 128.068 126.675 128.772Z" fill="#006F80"/>
<path d="M114.078 121.256V218.386H127.92V121.256H114.078Z" fill="#13A3B9"/>
<path d="M109.364 128.575L108.917 214.566C108.915 215.087 108.81 215.601 108.608 216.081C108.407 216.561 108.113 216.997 107.743 217.363C107.373 217.73 106.934 218.02 106.452 218.216C105.97 218.413 105.454 218.514 104.933 218.511C104.412 218.509 103.896 218.404 103.415 218.202C102.935 218.001 102.499 217.707 102.132 217.336C101.765 216.966 101.475 216.528 101.278 216.045C101.081 215.563 100.981 215.047 100.984 214.526L101.431 128.535C101.437 127.485 101.86 126.479 102.607 125.74C103.354 125 104.364 124.587 105.415 124.59C106.468 124.596 107.475 125.019 108.215 125.766C108.955 126.514 109.369 127.524 109.364 128.575Z" fill="#A0D8E0"/>
<path d="M105.924 198.028L105.883 206.489L126.255 206.589L126.296 198.127L105.924 198.028Z" fill="#434D6A"/>
<path d="M116.104 198.08L116.062 206.541L126.246 206.591L126.288 198.13L116.104 198.08Z" fill="#272A33"/>
<path d="M103.82 196.09V204.551H106.881V196.09H103.82Z" fill="#52607C"/>
<path d="M106.229 136.564L106.188 145.025L126.56 145.125L126.601 136.663L106.229 136.564Z" fill="#434D6A"/>
<path d="M116.416 136.616L116.375 145.077L126.559 145.127L126.6 136.665L116.416 136.616Z" fill="#272A33"/>
<path d="M106.221 136.561L106.18 145.023L109.24 145.038L109.282 136.576L106.221 136.561Z" fill="#52607C"/>
<path d="M146.91 128.888L146.463 214.655C146.454 215.359 146.167 216.031 145.665 216.526C145.164 217.02 144.488 217.298 143.783 217.297L128.73 217.226C128.026 217.217 127.353 216.93 126.858 216.429C126.363 215.928 126.086 215.252 126.086 214.548L126.51 128.781C126.52 128.077 126.806 127.405 127.308 126.91C127.809 126.416 128.486 126.139 129.19 126.139L144.243 126.21C144.951 126.214 145.63 126.497 146.129 126.999C146.629 127.501 146.91 128.18 146.91 128.888Z" fill="#006F80"/>
<path d="M136.733 123.12L136.258 220.248L150.1 220.316L150.575 123.187L136.733 123.12Z" fill="#13A3B9"/>
<path d="M129.598 128.674L129.152 214.669C129.149 215.189 129.044 215.704 128.843 216.183C128.641 216.663 128.347 217.098 127.977 217.464C127.607 217.83 127.168 218.12 126.686 218.316C126.204 218.513 125.688 218.612 125.167 218.61C124.646 218.607 124.131 218.502 123.651 218.301C123.17 218.1 122.735 217.806 122.368 217.436C122.001 217.067 121.711 216.628 121.514 216.147C121.317 215.665 121.216 215.149 121.219 214.629L121.665 128.638C121.668 128.118 121.773 127.603 121.974 127.123C122.176 126.643 122.47 126.207 122.84 125.841C123.21 125.475 123.648 125.185 124.13 124.988C124.613 124.791 125.129 124.69 125.65 124.693C126.171 124.695 126.686 124.799 127.167 125C127.648 125.201 128.084 125.495 128.451 125.865C128.817 126.235 129.107 126.673 129.304 127.155C129.501 127.637 129.601 128.153 129.598 128.674Z" fill="#A0D8E0"/>
<path d="M126.159 198.127L126.117 206.588L146.489 206.688L146.531 198.226L126.159 198.127Z" fill="#434D6A"/>
<path d="M136.346 198.179L136.305 206.64L146.489 206.69L146.53 198.228L136.346 198.179Z" fill="#272A33"/>
<path d="M126.159 198.129L126.117 206.59L129.178 206.605L129.219 198.144L126.159 198.129Z" fill="#52607C"/>
<path d="M124.211 135.064V143.526H144.583V135.064H124.211Z" fill="#434D6A"/>
<path d="M134.375 135.091V143.553H144.559V135.091H134.375Z" fill="#272A33"/>
<path d="M126.463 136.664L126.422 145.126L129.483 145.141L129.524 136.679L126.463 136.664Z" fill="#52607C"/>
<path d="M158.892 173.258H61.25V139.826L161.938 4.5744H215.172V130.709H245.277V173.258H215.163V217.025H158.883L158.892 173.258ZM167.11 130.709V69.9198L122.39 130.709H167.11Z" fill="#D4D7DB"/>
<path d="M300.341 208.363C285.535 199.55 274.127 186.835 266.117 170.219C258.107 153.602 254.102 133.846 254.102 110.952C254.102 88.057 258.056 68.3013 265.965 51.6846C273.874 35.0678 285.181 22.3025 299.885 13.3886C314.586 4.46288 331.975 0 352.051 0C372.128 0 389.518 4.46288 404.222 13.3886C418.923 22.3144 430.229 35.0797 438.138 51.6846C446.047 68.2894 450.001 88.0451 450.001 110.952C450.001 133.861 445.996 153.617 437.986 170.219C429.975 186.82 418.569 199.535 403.766 208.363C388.961 217.178 371.723 221.585 352.051 221.582C332.38 221.579 315.143 217.172 300.341 208.363ZM383.689 155.326C391.187 144.794 394.939 130.204 394.945 111.559C394.945 92.7162 391.243 77.8742 383.841 67.0324C376.438 56.1906 365.841 50.7756 352.051 50.7875C338.258 50.7875 327.663 56.2069 320.266 67.0458C312.87 77.8846 309.164 92.7222 309.149 111.559C309.149 130.204 312.901 144.794 320.405 155.326C327.909 165.858 338.453 171.126 352.038 171.129C365.631 171.129 376.182 165.861 383.689 155.326Z" fill="#D4D7DB"/>
<path d="M556.474 173.258H458.828V139.826L559.516 4.5744H612.75V130.709H642.864V173.258H612.75V217.025H556.47L556.474 173.258ZM564.688 130.709V69.9198L519.981 130.709H564.688Z" fill="#D4D7DB"/>
<path d="M417.609 181.809L333.122 182.746C332.779 182.75 332.438 182.686 332.119 182.559C331.8 182.431 331.509 182.242 331.264 182.002C331.018 181.762 330.822 181.476 330.687 181.16C330.553 180.844 330.481 180.505 330.478 180.162L330.313 165.358C330.309 165.015 330.372 164.674 330.5 164.355C330.628 164.036 330.817 163.746 331.057 163.5C331.297 163.254 331.584 163.058 331.9 162.923C332.216 162.788 332.555 162.716 332.899 162.712L417.386 161.775C417.73 161.771 418.071 161.834 418.39 161.962C418.709 162.089 419 162.279 419.246 162.519C419.492 162.759 419.688 163.045 419.824 163.36C419.959 163.676 420.031 164.015 420.035 164.359L420.2 179.162C420.204 179.506 420.14 179.847 420.012 180.166C419.884 180.485 419.695 180.776 419.454 181.022C419.213 181.268 418.927 181.464 418.61 181.599C418.294 181.734 417.953 181.805 417.609 181.809Z" fill="#006F80"/>
<path d="M423.109 171.7L327.43 172.768L327.582 186.379L423.261 185.311L423.109 171.7Z" fill="#13A3B9"/>
<path d="M417.542 164.778L332.832 165.72C332.319 165.726 331.81 165.631 331.334 165.44C330.858 165.25 330.425 164.967 330.058 164.609C329.691 164.251 329.399 163.824 329.197 163.353C328.996 162.882 328.889 162.376 328.883 161.864C328.872 160.829 329.273 159.832 329.998 159.093C330.722 158.353 331.711 157.931 332.747 157.919L417.453 156.977C418.488 156.967 419.485 157.366 420.225 158.089C420.965 158.812 421.388 159.799 421.401 160.833C421.407 161.345 421.312 161.854 421.121 162.329C420.93 162.805 420.648 163.238 420.29 163.604C419.931 163.971 419.504 164.263 419.033 164.464C418.561 164.666 418.055 164.773 417.542 164.778Z" fill="#A0D8E0"/>
<path d="M349.05 162.507L340.711 162.6L340.935 182.633L349.274 182.54L349.05 162.507Z" fill="#434D6A"/>
<path d="M349.167 172.525L340.828 172.618L340.94 182.637L349.279 182.544L349.167 172.525Z" fill="#272A33"/>
<path d="M349.05 162.508L340.711 162.602L340.745 165.609L349.083 165.516L349.05 162.508Z" fill="#52607C"/>
<path d="M409.604 161.831L401.266 161.925L401.49 181.957L409.828 181.864L409.604 161.831Z" fill="#434D6A"/>
<path d="M409.714 171.849L401.375 171.943L401.487 181.961L409.826 181.868L409.714 171.849Z" fill="#272A33"/>
<path d="M409.597 161.828L401.258 161.921L401.291 164.929L409.63 164.836L409.597 161.828Z" fill="#52607C"/>
<path d="M417.624 181.837L333.133 182.78C331.687 182.796 330.529 183.98 330.545 185.424L330.71 200.227C330.727 201.671 331.911 202.829 333.357 202.813L417.848 201.87C419.293 201.854 420.452 200.67 420.436 199.225L420.27 184.423C420.254 182.979 419.069 181.821 417.624 181.837Z" fill="#006F80"/>
<path d="M423.335 191.788L327.656 192.856L327.808 206.467L423.488 205.399L423.335 191.788Z" fill="#13A3B9"/>
<path d="M417.769 184.87L333.058 185.812C332.545 185.818 332.037 185.723 331.561 185.532C331.085 185.342 330.651 185.059 330.284 184.701C329.918 184.343 329.625 183.916 329.424 183.445C329.222 182.974 329.115 182.468 329.11 181.956C329.099 180.921 329.5 179.924 330.224 179.185C330.949 178.445 331.937 178.023 332.973 178.011L417.702 177.087C418.737 177.076 419.735 177.477 420.476 178.201C421.216 178.925 421.638 179.913 421.65 180.948C421.653 181.46 421.555 181.968 421.362 182.442C421.168 182.916 420.883 183.348 420.523 183.712C420.162 184.076 419.733 184.366 419.261 184.565C418.788 184.764 418.281 184.867 417.769 184.87Z" fill="#A0D8E0"/>
<path d="M349.276 182.6L340.938 182.693L341.161 202.725L349.5 202.632L349.276 182.6Z" fill="#434D6A"/>
<path d="M349.386 192.618L341.047 192.711L341.159 202.729L349.498 202.636L349.386 192.618Z" fill="#272A33"/>
<path d="M349.276 182.601L340.938 182.694L340.971 185.702L349.31 185.609L349.276 182.601Z" fill="#52607C"/>
<path d="M409.823 181.929L401.484 182.022L401.708 202.054L410.047 201.961L409.823 181.929Z" fill="#434D6A"/>
<path d="M409.94 191.942L401.602 192.035L401.714 202.054L410.052 201.961L409.94 191.942Z" fill="#272A33"/>
<path d="M409.823 181.925L401.484 182.018L401.518 185.026L409.857 184.933L409.823 181.925Z" fill="#52607C"/>
<path d="M417.842 201.742L333.352 202.685C331.906 202.702 330.747 203.885 330.764 205.33L330.929 220.132C330.945 221.576 332.13 222.734 333.576 222.718L418.066 221.775C419.512 221.759 420.671 220.575 420.654 219.131L420.489 204.328C420.473 202.884 419.288 201.726 417.842 201.742Z" fill="#006F80"/>
<path d="M423.562 211.693L327.883 212.761L328.035 226.372L423.714 225.304L423.562 211.693Z" fill="#13A3B9"/>
<path d="M417.983 204.757L333.277 205.716C332.764 205.723 332.255 205.628 331.779 205.438C331.303 205.247 330.869 204.965 330.502 204.607C330.135 204.249 329.843 203.822 329.641 203.35C329.44 202.879 329.334 202.373 329.328 201.86C329.318 200.826 329.718 199.83 330.441 199.09C331.165 198.351 332.153 197.928 333.188 197.915L417.898 196.973C418.933 196.963 419.93 197.363 420.67 198.086C421.411 198.808 421.834 199.795 421.847 200.829C421.853 201.861 421.45 202.854 420.726 203.589C420.002 204.325 419.016 204.745 417.983 204.757Z" fill="#A0D8E0"/>
<path d="M349.495 202.505L341.156 202.598L341.38 222.631L349.719 222.538L349.495 202.505Z" fill="#434D6A"/>
<path d="M349.612 212.523L341.273 212.616L341.385 222.635L349.724 222.541L349.612 212.523Z" fill="#272A33"/>
<path d="M349.495 202.502L341.156 202.595L341.19 205.603L349.529 205.51L349.495 202.502Z" fill="#52607C"/>
<path d="M410.05 201.829L401.711 201.923L401.935 221.955L410.274 221.862L410.05 201.829Z" fill="#434D6A"/>
<path d="M410.159 211.847L401.82 211.94L401.932 221.959L410.271 221.866L410.159 211.847Z" fill="#272A33"/>
<path d="M410.05 201.83L401.711 201.923L401.745 204.931L410.083 204.838L410.05 201.83Z" fill="#52607C"/>
<path d="M591.372 129.468L592.337 213.883C592.344 214.577 592.076 215.246 591.59 215.742C591.104 216.238 590.441 216.522 589.747 216.53L574.931 216.695C574.237 216.701 573.569 216.432 573.073 215.947C572.578 215.462 572.295 214.8 572.286 214.107L571.344 129.691C571.337 128.997 571.606 128.329 572.091 127.833C572.577 127.336 573.24 127.053 573.935 127.045L588.751 126.88C589.441 126.878 590.104 127.15 590.595 127.635C591.086 128.119 591.365 128.778 591.372 129.468Z" fill="#006F80"/>
<path d="M581.252 123.985L582.32 219.582L595.943 219.43L594.874 123.832L581.252 123.985Z" fill="#13A3B9"/>
<path d="M574.331 129.548L575.274 214.182C575.28 214.695 575.185 215.203 574.994 215.679C574.803 216.154 574.521 216.587 574.162 216.954C573.804 217.32 573.377 217.612 572.905 217.814C572.434 218.015 571.927 218.122 571.415 218.128C570.902 218.134 570.393 218.038 569.917 217.848C569.441 217.657 569.008 217.375 568.641 217.017C568.274 216.659 567.982 216.232 567.78 215.761C567.579 215.29 567.472 214.784 567.466 214.272L566.524 129.633C566.518 129.121 566.613 128.613 566.804 128.137C566.994 127.662 567.277 127.228 567.635 126.862C567.994 126.496 568.421 126.203 568.892 126.002C569.364 125.801 569.87 125.694 570.383 125.688C571.419 125.677 572.416 126.078 573.157 126.802C573.897 127.526 574.32 128.514 574.331 129.548Z" fill="#A0D8E0"/>
<path d="M572.063 197.972L572.156 206.304L592.206 206.08L592.113 197.748L572.063 197.972Z" fill="#434D6A"/>
<path d="M582.079 197.859L582.172 206.191L592.199 206.079L592.106 197.747L582.079 197.859Z" fill="#272A33"/>
<path d="M572.055 197.964L572.148 206.296L575.16 206.262L575.067 197.931L572.055 197.964Z" fill="#52607C"/>
<path d="M571.383 137.471L571.477 145.802L591.526 145.578L591.433 137.247L571.383 137.471Z" fill="#434D6A"/>
<path d="M581.399 137.358L581.492 145.689L591.519 145.577L591.426 137.246L581.399 137.358Z" fill="#272A33"/>
<path d="M571.383 137.472L571.477 145.804L574.488 145.77L574.395 137.438L571.383 137.472Z" fill="#52607C"/>
<path d="M611.483 129.245L612.439 213.683C612.443 214.026 612.379 214.368 612.251 214.687C612.123 215.006 611.933 215.297 611.693 215.543C611.452 215.788 611.165 215.984 610.849 216.119C610.532 216.254 610.192 216.326 609.848 216.329L595.037 216.494C594.342 216.501 593.673 216.233 593.176 215.747C592.68 215.262 592.396 214.6 592.388 213.906L591.445 129.468C591.438 128.774 591.707 128.106 592.193 127.609C592.679 127.113 593.342 126.83 594.036 126.822L608.852 126.657C609.544 126.653 610.209 126.923 610.702 127.408C611.195 127.893 611.476 128.554 611.483 129.245Z" fill="#006F80"/>
<path d="M601.369 123.756L602.438 219.354L616.06 219.202L614.991 123.604L601.369 123.756Z" fill="#13A3B9"/>
<path d="M594.449 129.334L595.391 213.968C595.397 214.48 595.302 214.989 595.111 215.464C594.92 215.94 594.638 216.373 594.279 216.739C593.921 217.106 593.494 217.398 593.022 217.599C592.551 217.801 592.045 217.908 591.532 217.913C590.496 217.924 589.498 217.523 588.758 216.8C588.018 216.076 587.595 215.088 587.583 214.053L586.641 129.419C586.635 128.907 586.73 128.398 586.921 127.923C587.112 127.447 587.394 127.014 587.753 126.648C588.111 126.281 588.538 125.989 589.009 125.788C589.481 125.586 589.987 125.48 590.5 125.474C591.536 125.463 592.534 125.864 593.274 126.588C594.014 127.311 594.437 128.299 594.449 129.334Z" fill="#A0D8E0"/>
<path d="M592.165 197.744L592.258 206.076L612.307 205.852L612.214 197.52L592.165 197.744Z" fill="#434D6A"/>
<path d="M602.18 197.63L602.273 205.962L612.301 205.85L612.207 197.518L602.18 197.63Z" fill="#272A33"/>
<path d="M592.157 197.741L592.25 206.073L595.261 206.039L595.168 197.707L592.157 197.741Z" fill="#52607C"/>
<path d="M591.493 137.247L591.586 145.578L611.636 145.355L611.542 137.023L591.493 137.247Z" fill="#434D6A"/>
<path d="M601.508 137.134L601.602 145.465L611.629 145.353L611.535 137.022L601.508 137.134Z" fill="#272A33"/>
<path d="M591.493 137.244L591.586 145.575L594.597 145.542L594.504 137.21L591.493 137.244Z" fill="#52607C"/>
<path d="M631.403 129.022L632.345 213.437C632.352 214.131 632.083 214.8 631.598 215.296C631.112 215.792 630.449 216.075 629.754 216.084L614.943 216.249C614.248 216.256 613.579 215.987 613.083 215.502C612.586 215.017 612.302 214.354 612.294 213.66L611.352 129.245C611.345 128.551 611.613 127.882 612.099 127.386C612.585 126.89 613.248 126.607 613.942 126.598L628.758 126.438C629.102 126.434 629.443 126.497 629.762 126.625C630.081 126.753 630.371 126.942 630.617 127.182C630.862 127.422 631.058 127.708 631.193 128.024C631.328 128.339 631.399 128.679 631.403 129.022Z" fill="#006F80"/>
<path d="M621.283 123.537L622.352 219.135L635.974 218.982L634.905 123.385L621.283 123.537Z" fill="#13A3B9"/>
<path d="M614.363 129.102L615.305 213.736C615.311 214.248 615.216 214.757 615.025 215.232C614.834 215.708 614.552 216.141 614.193 216.507C613.835 216.874 613.408 217.166 612.937 217.367C612.465 217.569 611.959 217.675 611.446 217.681C610.933 217.688 610.424 217.593 609.948 217.403C609.472 217.212 609.038 216.93 608.671 216.572C608.304 216.214 608.012 215.787 607.81 215.315C607.609 214.844 607.503 214.338 607.497 213.825L606.555 129.187C606.549 128.675 606.644 128.167 606.835 127.691C607.026 127.216 607.309 126.783 607.667 126.417C608.025 126.051 608.452 125.759 608.924 125.558C609.395 125.358 609.902 125.251 610.414 125.246C610.927 125.24 611.436 125.334 611.912 125.525C612.388 125.715 612.822 125.997 613.189 126.356C613.556 126.714 613.848 127.141 614.05 127.612C614.251 128.083 614.357 128.59 614.363 129.102Z" fill="#A0D8E0"/>
<path d="M612.079 197.52L612.172 205.851L632.222 205.628L632.128 197.296L612.079 197.52Z" fill="#434D6A"/>
<path d="M622.102 197.407L622.195 205.738L632.222 205.626L632.129 197.295L622.102 197.407Z" fill="#272A33"/>
<path d="M612.087 197.522L612.18 205.853L615.191 205.82L615.098 197.488L612.087 197.522Z" fill="#52607C"/>
<path d="M611.407 137.027L611.5 145.359L631.55 145.135L631.456 136.804L611.407 137.027Z" fill="#434D6A"/>
<path d="M621.438 136.91L621.531 145.241L631.558 145.13L631.465 136.798L621.438 136.91Z" fill="#272A33"/>
<path d="M611.407 137.024L611.5 145.356L614.511 145.322L614.418 136.991L611.407 137.024Z" fill="#52607C"/>
<path d="M36.511 330.842C32.1118 330.893 27.7463 330.071 23.6672 328.424C19.5882 326.778 15.8767 324.338 12.7479 321.248C9.61899 318.158 7.13493 314.478 5.43956 310.422C3.74419 306.366 2.87122 302.014 2.87122 297.618C2.87122 293.222 3.74419 288.87 5.43956 284.814C7.13493 280.758 9.61899 277.078 12.7479 273.988C15.8767 270.898 19.5882 268.459 23.6672 266.812C27.7463 265.165 32.1118 264.343 36.511 264.394H428.037C434.077 264.387 439.867 261.987 444.138 257.72C448.408 253.453 450.81 247.668 450.818 241.633V239.402H484.554C490.433 239.396 496.07 237.061 500.229 232.909C504.388 228.757 506.73 223.127 506.74 217.253V125.688C506.747 119.952 509.031 114.453 513.091 110.397C517.15 106.341 522.654 104.059 528.395 104.052H592.139C594.161 104.054 596.099 104.858 597.529 106.287C598.958 107.717 599.762 109.654 599.763 111.675V112.032H590.383C587.715 112.035 585.158 113.096 583.271 114.98C581.385 116.865 580.323 119.421 580.32 122.086V126.955H583.978V122.086C583.982 120.39 584.658 118.764 585.858 117.565C587.058 116.366 588.686 115.69 590.383 115.687H599.763V126.955H603.426V115.687H613.279C614.977 115.689 616.605 116.364 617.806 117.564C619.007 118.763 619.682 120.39 619.685 122.086V126.518H623.347V122.086C623.344 119.42 622.282 116.864 620.394 114.979C618.507 113.094 615.948 112.034 613.279 112.032H603.426V111.675C603.422 108.685 602.232 105.818 600.116 103.704C598 101.59 595.131 100.4 592.139 100.397H528.395C521.683 100.404 515.248 103.071 510.502 107.812C505.756 112.553 503.086 118.982 503.078 125.688V217.253C503.072 222.158 501.119 226.861 497.647 230.33C494.175 233.799 489.468 235.75 484.559 235.756H450.822V208.412C450.811 204.225 449.373 200.168 446.745 196.907C444.116 193.647 440.455 191.378 436.363 190.476V179.8C436.36 177.017 435.251 174.348 433.281 172.38C431.31 170.413 428.639 169.306 425.853 169.304H420.122V172.959H425.853C427.669 172.96 429.41 173.681 430.694 174.964C431.978 176.247 432.699 177.986 432.701 179.8V190.029H420.346V193.689H432.701V204.757C432.699 206.145 432.147 207.476 431.165 208.457C430.182 209.439 428.85 209.991 427.461 209.992H420.565V213.651H427.461C429.82 213.643 432.079 212.703 433.747 211.037C435.415 209.371 436.355 207.113 436.363 204.757V194.224C439.47 195.083 442.209 196.936 444.161 199.498C446.113 202.06 447.171 205.191 447.173 208.412V241.629C447.168 246.695 445.152 251.552 441.567 255.133C437.982 258.715 433.121 260.73 428.051 260.735H186.002V139.483C185.995 133.344 183.551 127.459 179.207 123.119C174.862 118.778 168.972 116.336 162.829 116.329H144.296C141.679 116.333 139.171 117.373 137.32 119.222C135.47 121.071 134.429 123.578 134.425 126.192H138.088C138.09 124.548 138.745 122.971 139.909 121.808C141.073 120.646 142.65 119.991 144.296 119.989H162.829C168.001 119.995 172.96 122.05 176.618 125.705C180.276 129.36 182.333 134.314 182.339 139.483V260.735H36.511C26.7909 260.841 17.5052 264.774 10.6696 271.68C3.83394 278.585 0 287.906 0 297.618C0 307.33 3.83394 316.651 10.6696 323.556C17.5052 330.462 26.7909 334.395 36.511 334.501H685.568V330.842H36.511Z" fill="#6E7686"/>
<path d="M675.004 275.699H671.211V297.491H675.004V275.699Z" fill="#434D6A"/>
<path d="M681.851 297.495H664.359V300.806H681.851V297.495Z" fill="#272A33"/>
<path d="M681.616 272.387H664.125V275.699H681.616V272.387Z" fill="#272A33"/>
<path d="M698.341 304.122H647.868C647.429 304.122 647.007 303.948 646.696 303.637C646.385 303.327 646.211 302.906 646.211 302.467C646.211 302.027 646.385 301.606 646.696 301.294C647.007 300.983 647.428 300.808 647.868 300.806H698.341C698.781 300.808 699.203 300.983 699.514 301.294C699.824 301.606 699.999 302.027 699.999 302.467C699.999 302.906 699.824 303.327 699.513 303.637C699.202 303.948 698.781 304.122 698.341 304.122Z" fill="#DA927E"/>
<path d="M698.341 354H647.868C647.429 354 647.007 353.826 646.696 353.515C646.385 353.205 646.211 352.783 646.211 352.344C646.211 351.905 646.385 351.483 646.696 351.172C647.007 350.861 647.428 350.685 647.868 350.684H698.341C698.781 350.685 699.203 350.861 699.514 351.172C699.824 351.483 699.999 351.905 699.999 352.344C699.999 352.783 699.824 353.205 699.513 353.515C699.202 353.826 698.781 354 698.341 354Z" fill="#DA927E"/>
<path d="M696.179 304.123H649.578V350.684H696.179V304.123Z" fill="#995042"/>
<path d="M688.244 263.216H657.513C656.613 263.216 655.883 263.945 655.883 264.845V270.758C655.883 271.658 656.613 272.387 657.513 272.387H688.244C689.144 272.387 689.874 271.658 689.874 270.758V264.845C689.874 263.945 689.144 263.216 688.244 263.216Z" fill="#13A3B9"/>
<path d="M691.188 266.496H656.548C655.795 266.496 655.072 266.197 654.538 265.665C654.005 265.133 653.704 264.411 653.703 263.658C653.703 263.285 653.777 262.915 653.92 262.571C654.063 262.226 654.273 261.913 654.537 261.649C654.801 261.386 655.115 261.177 655.46 261.034C655.805 260.892 656.175 260.819 656.548 260.819H691.188C691.561 260.819 691.93 260.892 692.275 261.034C692.62 261.177 692.934 261.386 693.198 261.649C693.461 261.913 693.671 262.226 693.813 262.571C693.956 262.916 694.029 263.285 694.028 263.658C694.028 264.411 693.729 265.133 693.196 265.665C692.663 266.197 691.941 266.496 691.188 266.496Z" fill="#006F80"/>
<path d="M654.305 304.123V308.465H683.896V347.109H654.305V350.684H696.18V304.123H654.305Z" fill="#754436"/>
<path d="M658.742 304.123H656.727V350.684H658.742V304.123Z" fill="#DA927E"/>
<path d="M668.812 304.123H666.797V350.684H668.812V304.123Z" fill="#DA927E"/>
<path d="M679.179 304.123H677.164V350.684H679.179V304.123Z" fill="#DA927E"/>
<path d="M689.273 304.123H687.258V350.684H689.273V304.123Z" fill="#DA927E"/>
</svg>
