<svg width="20" height="16" viewBox="0 0 20 16" fill="none" xmlns="http://www.w3.org/2000/svg">
<path d="M9.97033 15.9896C5.56273 15.9896 2.37446 12.6338 0.865286 10.639C-0.324066 9.05974 -0.284097 6.88831 0.965223 5.35065C2.94414 2.90909 6.13241 0 10.0203 0C13.9082 0 17.0964 2.91948 19.0654 5.38182C20.2947 6.91948 20.3147 9.16364 19.1054 10.7117C17.2264 13.1221 14.1181 16 9.98032 16L9.97033 15.9896ZM10.0203 2.07792C6.90199 2.07792 4.20346 4.59221 2.49439 6.69091C1.86473 7.47013 1.84474 8.56104 2.44441 9.36104C3.73371 11.0649 6.42225 13.9221 9.98032 13.9221C13.3385 13.9221 15.9571 11.4701 17.5562 9.4026C18.1759 8.61299 18.1659 7.5013 17.5262 6.71169C16.137 4.98701 13.3285 2.07792 10.0203 2.07792Z" fill="#272A33"/>
<path d="M10.0103 12.1455C7.8015 12.1455 6.01247 10.2857 6.01247 7.98961C6.01247 5.69351 7.8015 3.83377 10.0103 3.83377C12.2191 3.83377 14.0081 5.69351 14.0081 7.98961C14.0081 10.2857 12.2191 12.1455 10.0103 12.1455ZM10.0103 5.91169C8.91089 5.91169 8.01138 6.84675 8.01138 7.98961C8.01138 9.13247 8.91089 10.0675 10.0103 10.0675C11.1097 10.0675 12.0092 9.13247 12.0092 7.98961C12.0092 6.84675 11.1097 5.91169 10.0103 5.91169Z" fill="#272A33"/>
</svg>
