<svg width="20" height="26" viewBox="0 0 20 26" fill="none" xmlns="http://www.w3.org/2000/svg">
<path d="M10.0001 12.6667C13.3067 12.6667 16.0001 9.97334 16.0001 6.66667C16.0001 3.36001 13.3067 0.666672 10.0001 0.666672C6.69341 0.666672 4.00008 3.36001 4.00008 6.66667C4.00008 9.97334 6.69341 12.6667 10.0001 12.6667ZM10.0001 3.33334C11.8401 3.33334 13.3334 4.82667 13.3334 6.66667C13.3334 8.50667 11.8401 10 10.0001 10C8.16008 10 6.66675 8.50667 6.66675 6.66667C6.66675 4.82667 8.16008 3.33334 10.0001 3.33334Z" fill="#A7B4CC"/>
<path d="M14.0001 14H6.00008C3.05341 14 0.666748 16.3867 0.666748 19.3333V20.6667C0.666748 23.6133 3.05341 26 6.00008 26H14.0001C16.9467 26 19.3334 23.6133 19.3334 20.6667V19.3333C19.3334 16.3867 16.9467 14 14.0001 14ZM16.6667 20.6667C16.6667 22.1333 15.4667 23.3333 14.0001 23.3333H6.00008C4.53341 23.3333 3.33341 22.1333 3.33341 20.6667V19.3333C3.33341 17.8667 4.53341 16.6667 6.00008 16.6667H14.0001C15.4667 16.6667 16.6667 17.8667 16.6667 19.3333V20.6667Z" fill="#A7B4CC"/>
</svg>
